<svg id="Layer_1" data-name="Layer 1" xmlns="http://www.w3.org/2000/svg" viewBox="0 0 245 198"><defs><style>.cls-1,.cls-2{fill:#fff;}.cls-2{stroke:#fff;stroke-linecap:round;stroke-linejoin:round;stroke-width:1.01px;}</style></defs><path class="cls-1" d="M103,116.43c-.3-.94-.64-2-.92-3l-1.51-5.56c-.13-.61-.28-1.25-.41-1.86a2,2,0,0,1,1.21-2.37,2,2,0,0,1,2.51.91c.79,1.41,1.55,2.88,2.22,4.38,1,2.34,1.92,4.8,2.84,7.21,1,2.74,2,5.51,3,8.28.58,1.94,1,3.93,1.49,5.92a2.68,2.68,0,0,1-.32,2.18,2,2,0,0,1-3,.4,6.62,6.62,0,0,1-1.09-1.55,64,64,0,0,1-3.85-8.69l-.44-1.14c-2,.5-3.41,1.75-5.08,2.64a15.68,15.68,0,0,0,1,2.32c.35.77.69,1.55,1,2.34a4.31,4.31,0,0,1,0,2.75,2.71,2.71,0,0,1-4,1.58,5.23,5.23,0,0,1-2.3-3.15c-1.17-3.33-2.29-6.67-3.41-10-.6-2-1.13-3.9-1.67-5.85a1.93,1.93,0,0,1,3.43-1.71A27.34,27.34,0,0,1,96.25,117c.42,1,.9,2,1.32,3C99.4,118.77,101.18,117.64,103,116.43ZM96.17,130.1a10.45,10.45,0,0,0,.82,1.5,2.85,2.85,0,0,0,2.23,1.11,1.18,1.18,0,0,0,1.21-.66,3.18,3.18,0,0,1-2.4-.5,16.72,16.72,0,0,1-1.7-1.56C96.24,130,96.21,130.08,96.17,130.1Zm-4.68-16.67a5.84,5.84,0,0,1,.7-1.32,1.06,1.06,0,0,0-1.16.64,1.88,1.88,0,0,0,.28,2.21A7.47,7.47,0,0,1,91.49,113.43Zm20.44,18.72a2.3,2.3,0,0,1-1.51-.78l-.81-1a4.26,4.26,0,0,0-.46-.43c.4,2.11,1.9,3.15,3.39,2.33A3.53,3.53,0,0,0,111.93,132.15Zm-10.67-26.6a7.93,7.93,0,0,1,.71-1.43,1.09,1.09,0,0,0-1.2.81,2.29,2.29,0,0,0,.42,2.3A8.07,8.07,0,0,1,101.26,105.55Z"/><path class="cls-1" d="M110.21,111.24a2,2,0,0,1,.18-3.09,5.54,5.54,0,0,1,4.62-1,6.75,6.75,0,0,1,4.55,3.4,8.84,8.84,0,0,1,1.32,3.47,12.94,12.94,0,0,1,.37,3.33,5.15,5.15,0,0,1-2.13,4.32,4,4,0,0,1-2.41.67,5.37,5.37,0,0,1-4.8-2.85,8.18,8.18,0,0,1-1-6.1,8.22,8.22,0,0,1,.72-1.42A6.41,6.41,0,0,1,110.21,111.24Zm2.26,7.13.23.62A5.57,5.57,0,0,0,115,121.2a4,4,0,0,0,3.34.19c.13,0,.21-.23.33-.33a1.37,1.37,0,0,0-.45-.13,3.88,3.88,0,0,1-2.19-.07,6.2,6.2,0,0,1-3.15-2.32.59.59,0,0,0-.19-.23Zm-.27-7.44a3.6,3.6,0,0,1-.44-.38,1.78,1.78,0,0,1-.84-1.54.83.83,0,0,0-.07-.32,2.49,2.49,0,0,0-.32.22,1.5,1.5,0,0,0,.18,1.54,1.42,1.42,0,0,0,1.39.62C112.15,111.06,112.18,111,112.2,110.93Zm2.65,3.27a1,1,0,0,0,0,.51,16.27,16.27,0,0,0,.46,2,2.44,2.44,0,0,0,1.24,1.69c.35.12.5.12.66-.25a3.27,3.27,0,0,0,.12-2.2,7.28,7.28,0,0,0-1.38-3.35,2.3,2.3,0,0,0-1.76-.94A2.18,2.18,0,0,1,114.85,114.2Zm1.65-2.54,1.64,4.31C118.74,115,117.43,111.86,116.5,111.66Z"/><path class="cls-1" d="M132.52,120.35a1.74,1.74,0,0,1,1.4,1.43,1.91,1.91,0,0,1-.78,2,12.8,12.8,0,0,1-1.79,1,3.24,3.24,0,0,1-2.22.1,4.71,4.71,0,0,1-3.17-2.77c-.83-2-1.79-4-2.59-6.15-.63-1.67-1.15-3.43-1.66-5.15-.35-1.07-.62-2.18-1-3.29s-.82-2.41-1.18-3.63a13.6,13.6,0,0,1-.43-2,2.16,2.16,0,0,1,4-1.28c.48.87.93,1.81,1.35,2.76.29.64.57,1.24.8,1.85.65,1.71,1.26,3.44,1.85,5.13.81,2.25,1.62,4.51,2.36,6.74.37,1,.67,2,1,3l.13.35A13.82,13.82,0,0,1,132.52,120.35Zm-1.08,3.38a.37.37,0,0,1-.16,0,5.26,5.26,0,0,1-4-2.2c-.07-.07-.22-.06-.34-.12,0,.15-.05.27,0,.36a4.08,4.08,0,0,0,3.75,2.44,2.31,2.31,0,0,0,.8-.25A.72.72,0,0,0,131.44,123.73Zm-11.26-22.61a2.28,2.28,0,0,0,.48,2.58c0-.66,0-1.25,0-1.86a2.08,2.08,0,0,1,1-1.5A1.31,1.31,0,0,0,120.18,101.12Z"/><path class="cls-1" d="M135.34,118.37a2,2,0,0,1-2.66-1.05,1.89,1.89,0,0,1,.51-2.2,11.49,11.49,0,0,1,2.12-1.56,42.92,42.92,0,0,1,3.81-2.15,17.81,17.81,0,0,1,3.37-1.19,2.4,2.4,0,0,1,2.58,1.64,2.59,2.59,0,0,1-1.29,3c-1.94.84-3.93,1.7-5.85,2.58l0-.09A27,27,0,0,1,135.34,118.37ZM137.72,97a2.18,2.18,0,0,1,1.67,1.48,2.06,2.06,0,0,1-.7,2.27,18.68,18.68,0,0,1-2.11,1.31,21.69,21.69,0,0,1-2.62,1.45c-1,.42-1.94,1-2.9,1.5a2.1,2.1,0,0,1-3-1,2.13,2.13,0,0,1,.25-2.25A8.38,8.38,0,0,1,131,99.73c1.08-.61,2.2-1.24,3.29-1.8.45-.27,1-.47,1.44-.7A3.28,3.28,0,0,1,137.72,97Zm-6.56,11.84a11.45,11.45,0,0,1,3.05-1.91c1.06-.5,2.15-1.07,3.18-1.66a2.46,2.46,0,0,1,3.34,1.09,2,2,0,0,1-1.09,2.58,25.51,25.51,0,0,1-2.43,1.27c-.8.41-1.55.79-2.33,1.14a11,11,0,0,1-1.72.5A3.7,3.7,0,0,1,132,112a1.41,1.41,0,0,1-1.18-.86A2,2,0,0,1,131.16,108.85Zm4.13,8.48a2.39,2.39,0,0,1-1.55-1.17,2.15,2.15,0,0,0-.29-.24c0,.11-.11.25-.1.4a1.8,1.8,0,0,0,1.12,1.48c.4.15.78,0,1.23-.32C135.48,117.42,135.4,117.34,135.29,117.33ZM128.72,103c-.14.3,0,.74.48,1.12a1.09,1.09,0,0,0,1.51.28C130,103.86,129.35,103.41,128.72,103Zm3.1,8a1.13,1.13,0,0,0,1.43.2,2.64,2.64,0,0,1-1.7-1.71A1.27,1.27,0,0,0,131.82,111Zm7.35-2.6a1.15,1.15,0,0,0,.84-1.22,1.47,1.47,0,0,0-.9-1.47A3.45,3.45,0,0,1,139.17,108.37Zm-1.29-7.9a1.78,1.78,0,0,0,.38-2.31c-.06,0-.2-.12-.27,0a.26.26,0,0,0-.11.25,2.94,2.94,0,0,1-.24,2s0,.09,0,.15A.47.47,0,0,0,137.88,100.47Zm5.85,10.89a1.2,1.2,0,0,0-.44-.23,1.28,1.28,0,0,0,0,.44,2.26,2.26,0,0,1-.05,2,1.27,1.27,0,0,0,0,.42,1.21,1.21,0,0,0,.43-.06,1.75,1.75,0,0,0,.39-2.16C144,111.68,143.88,111.5,143.73,111.36Z"/><path class="cls-1" d="M147.7,108.19a7.3,7.3,0,0,1-1,.3,1.36,1.36,0,0,1-1.63-.84,1.33,1.33,0,0,1,.66-1.71c.54-.3,1.09-.56,1.64-.82,1.26-.53,2.5-1.1,3.73-1.57.88-.34,1.77-.63,2.67-.92a1.52,1.52,0,0,1,1.9,1,1.49,1.49,0,0,1-.81,2,20.15,20.15,0,0,1-2.22.89v0C151,107.15,149.36,107.66,147.7,108.19Zm-1.55-.11c.24.11.59.23.72-.22-.37-.32-.72-.58-1.15-.92C145.53,107.51,145.66,107.86,146.15,108.08Zm9-3.89a.75.75,0,0,0-.53-1c-.16.66-.26,1.31-.46,2A1,1,0,0,0,155.18,104.19Z"/><path class="cls-1" d="M168.19,114.23a1.81,1.81,0,0,1-.62-2.68,4.66,4.66,0,0,0,.85-3.59c-.18-1.54-.47-3.09-.76-4.64a.32.32,0,0,0-.11-.16,7.83,7.83,0,0,1-.29.82,6.3,6.3,0,0,1-1.67,2.74,4.19,4.19,0,0,1-4.33.64,6.75,6.75,0,0,1-3.75-3.5,21.61,21.61,0,0,1-1.53-3.49,15.33,15.33,0,0,1-1-5.06,2.51,2.51,0,0,1,1.29-2.4,2.29,2.29,0,0,1,2.72.67,6.67,6.67,0,0,1,.75,1.17c.57,1.1,1.13,2.19,1.65,3.3A13.7,13.7,0,0,0,163.1,101l.38.46a14,14,0,0,0,.29-1.47,48.52,48.52,0,0,0,.08-9.18,5.84,5.84,0,0,1,0-1.5,1.82,1.82,0,0,1,1.63-1.42,2,2,0,0,1,1.92.83,17.53,17.53,0,0,1,2.18,3.89c.29.75.68,1.51,1,2.25a34.58,34.58,0,0,1,2.27,11.25,15.51,15.51,0,0,1-.95,5.84,12.85,12.85,0,0,1-1.4,2,3.72,3.72,0,0,0-.29.31l-.79.3A7.43,7.43,0,0,1,168.19,114.23ZM156.41,95.68a2.19,2.19,0,0,1,.43-1.52c.12-.09.14-.3.22-.48-.22.08-.43.06-.59.17a2.22,2.22,0,0,0-.3,2.78s.12.05.34.22C156.47,96.36,156.44,96,156.41,95.68Zm7.92,10.51a2.44,2.44,0,0,0-.47-.17,2.92,2.92,0,0,1-.73-.07,6.61,6.61,0,0,1-3.38-1.63,1.07,1.07,0,0,0-.39-.11c0,.14,0,.3.09.37a14.46,14.46,0,0,0,1.83,1.52,3.77,3.77,0,0,0,2.72.42C164.12,106.43,164.22,106.29,164.33,106.19Zm6,6.76a2.83,2.83,0,0,0-.63-.07,1.87,1.87,0,0,1-1.32-.3c-.11,0-.23-.06-.33-.07s-.05.27,0,.38a1.68,1.68,0,0,0,1.82.67A5.15,5.15,0,0,1,170.37,113ZM164.9,91.3a1.75,1.75,0,0,0,.22-.34s.06-.12,0-.16a2.77,2.77,0,0,1,.66-2,.56.56,0,0,0,.05-.27c-.08-.07-.2-.13-.28-.09a.74.74,0,0,0-.39.29,2.34,2.34,0,0,0-.55,2.27A1.57,1.57,0,0,1,164.9,91.3Z"/><path class="cls-1" d="M87.88,162.45a14.25,14.25,0,0,0,5-6.28,8.93,8.93,0,0,0,0-6.92,9.64,9.64,0,0,0-5.32-5.42,11.58,11.58,0,0,0-7-.87,1.78,1.78,0,0,0-.47.08,1.69,1.69,0,0,1-1.3-3,6.3,6.3,0,0,1,2.53-1.27,15.15,15.15,0,0,1,9.22.72,13.33,13.33,0,0,1,6.15,5.2,14.43,14.43,0,0,1,2.59,9.72A15.5,15.5,0,0,1,96.1,162a20.65,20.65,0,0,1-7.46,6.15,14.46,14.46,0,0,1-2,.69,3.64,3.64,0,0,1-4.45-1.92,41.15,41.15,0,0,1-2-4.36c-.55-1.45-1-2.94-1.52-4.4-1-2.8-2-5.57-3-8.37-.65-1.86-1.24-3.8-1.81-5.69A1.62,1.62,0,0,1,75.12,142a1.73,1.73,0,0,1,1.81.82,34,34,0,0,1,2.8,4.71c.94,1.81,1.88,3.61,2.73,5.45,1.43,3,2.82,6,4.21,9,.14.24.3.53.52.85C87.44,162.62,87.68,162.58,87.88,162.45ZM84.7,168a3.2,3.2,0,0,0,3-.5c-2.39.06-2.48.74-5.19-1.75A3.34,3.34,0,0,0,84.7,168Zm-9.6-24.34a4.48,4.48,0,0,1,.68-1.12c-.59-.08-.89,0-1.11.52a1.78,1.78,0,0,0,.43,2.05A7,7,0,0,1,75.1,143.64Zm4.68-1.83a7.32,7.32,0,0,1-1-.87,1,1,0,0,0,.51,1.21c.51.41,1.1.39,1.87-.1A6.88,6.88,0,0,1,79.78,141.81Z"/><path class="cls-1" d="M99.31,142a2,2,0,0,1,.18-3.09,5.54,5.54,0,0,1,4.62-1,6.76,6.76,0,0,1,4.56,3.4,9.16,9.16,0,0,1,1.32,3.47,12.93,12.93,0,0,1,.36,3.33,5.15,5.15,0,0,1-2.13,4.32,4.09,4.09,0,0,1-2.41.67,5.41,5.41,0,0,1-4.8-2.85,8.13,8.13,0,0,1-1-6.1,8.28,8.28,0,0,1,.71-1.43A6.61,6.61,0,0,1,99.31,142Zm2.26,7.13.23.62a5.57,5.57,0,0,0,2.25,2.21,4,4,0,0,0,3.34.19c.13,0,.21-.24.33-.33a1,1,0,0,0-.45-.13,4,4,0,0,1-2.19-.07,6.25,6.25,0,0,1-3.15-2.33.9.9,0,0,0-.18-.23Zm-.26-7.44a4.79,4.79,0,0,1-.45-.38,1.78,1.78,0,0,1-.84-1.54.88.88,0,0,0-.07-.33c-.12.1-.25.15-.32.23a1.5,1.5,0,0,0,.18,1.53,1.41,1.41,0,0,0,1.4.63A.32.32,0,0,0,101.31,141.71ZM104,145a1.05,1.05,0,0,0,0,.5,14.38,14.38,0,0,0,.45,2,2.48,2.48,0,0,0,1.24,1.69c.35.12.5.11.66-.25a3.3,3.3,0,0,0,.12-2.21,7.23,7.23,0,0,0-1.37-3.34,2.29,2.29,0,0,0-1.77-.94A2.18,2.18,0,0,1,104,145Zm1.65-2.54,1.64,4.3C107.84,145.81,106.53,142.64,105.6,142.44Z"/><path class="cls-1" d="M122.72,146.08a5.57,5.57,0,0,1-1.53,4,4.29,4.29,0,0,1-4.45.84,6.43,6.43,0,0,1-3.77-3.44c-.7-1.44-1.33-3-1.92-4.5a14.09,14.09,0,0,1-.73-2.73,1.93,1.93,0,0,1,2-2.4,1.76,1.76,0,0,1,1.85,1.15,40.66,40.66,0,0,0,3,5.12c.24.37.59.63.87,1l.18-.07c0-.61.08-1.23.08-1.89,0-2.24-.15-4.51-.12-6.79a11.67,11.67,0,0,1,.3-2.93,2.52,2.52,0,0,1,4.23-1.3,6.2,6.2,0,0,1,1.85,2.61c.49,1.17,1,2.34,1.44,3.53.68,1.8,1.37,3.6,1.94,5.39a3.49,3.49,0,0,1,.08,2.58,2.23,2.23,0,0,1-3.85.56,8.7,8.7,0,0,1-.84-1.39c-.21-.42-.31-.83-.48-1.27l-.09,0C122.74,144.82,122.77,145.41,122.72,146.08ZM111.39,139a2,2,0,0,0,.07,1.89,1.19,1.19,0,0,0,.33.22.84.84,0,0,0,.11-.39c0-.21-.11-.41-.09-.62.07-.48.18-1,.3-1.47A.56.56,0,0,0,111.39,139Zm9,10.17-.06,0-.35.13a4.12,4.12,0,0,1-2.3.17,6.51,6.51,0,0,1-2.41-1.45,3.1,3.1,0,0,0-.49-.36s-.07.07-.12.09.06.28.14.35a14,14,0,0,0,1.48,1.4,3.35,3.35,0,0,0,3.56.36c.26-.1.46-.38.69-.57C120.41,149.27,120.4,149.23,120.34,149.2Zm-.91-13a9.1,9.1,0,0,0,.18-1,3.69,3.69,0,0,1,1.1-2.53l0,0a1,1,0,0,0,.12-.35c-.1,0-.23-.06-.31,0a3.25,3.25,0,0,0-.8.55,3.68,3.68,0,0,0-.79,2.67,3.77,3.77,0,0,0,.26.7S119.37,136.2,119.43,136.23Zm4.43,7.56c0,.12-.11.24-.08.33a4,4,0,0,0,1.35,2.21,1.49,1.49,0,0,0,1.39.22c.09,0,.14-.15.25-.25a1.09,1.09,0,0,0-.3-.13,4.59,4.59,0,0,1-1-.42c-.42-.45-.73-1-1.1-1.44l-.37-.57Z"/><path class="cls-1" d="M136.61,144.42a4.53,4.53,0,0,1-3.61,0,8,8,0,0,1-4.5-3.92,10.85,10.85,0,0,1-1.29-5.49,13.8,13.8,0,0,1,1.28-5.62,6.34,6.34,0,0,1,5.92-3.75,2.9,2.9,0,0,1,2.51,1.45,1.87,1.87,0,0,1-1.33,2.72A2.12,2.12,0,0,0,133.3,132a10,10,0,0,0,.28,4.17,12.52,12.52,0,0,0,1.14,2.73s0,.09.09.11c.76.92,1,.82,1.59-.2a2.1,2.1,0,0,0,.07-1.78c-.16-.7-.41-1.35-.62-2a3.56,3.56,0,0,1-.21-1.88,1.81,1.81,0,0,1,1.53-1.53,1.88,1.88,0,0,1,2,.81,7.64,7.64,0,0,1,.71,1.33c.54,1.16,1.12,2.29,1.62,3.46a53.48,53.48,0,0,1,1.89,5.11,2.45,2.45,0,0,1-1.52,3.14,2.58,2.58,0,0,1-3.19-1l-.48-.88A11.28,11.28,0,0,1,136.61,144.42Zm-.45-1.18a4,4,0,0,0-.52-.06,4.59,4.59,0,0,1-3.33-1.09c-.84-.74-1.61-1.6-2.36-2.37a8.32,8.32,0,0,1-.63-.72.21.21,0,0,0-.07.08.54.54,0,0,0,.09.37,8.24,8.24,0,0,0,3.17,3.57,4.39,4.39,0,0,0,2.36.66c.45,0,.86-.13,1.29-.19C136.17,143.38,136.15,143.34,136.16,143.24Zm-6.82-12.14a1.09,1.09,0,0,0,.13-.3,9.08,9.08,0,0,1,1.55-2.55c.17-.21.35-.38.52-.6s0-.21.08-.33a1.52,1.52,0,0,0-.34,0,17.13,17.13,0,0,0-1.27,1.29,3.16,3.16,0,0,0-.88,2,1.38,1.38,0,0,0,0,.49Zm9.84,11.74,0,.32a2.18,2.18,0,0,0,2.51,1.45.75.75,0,0,0,.6-.68,2.64,2.64,0,0,1-3-1.23C139.25,142.77,139.21,142.78,139.18,142.84ZM137,132.53c-.48.07-.58.47-.65.8-.14.7.06,1.48.48,1.67C136.84,134.18,136.9,133.41,137,132.53Zm-1.78-4a1.25,1.25,0,0,0-.43.31c-.07.08-.08.18-.15.26.12.05.2.13.28.09a1.48,1.48,0,0,0,1.23-.87.58.58,0,0,0-.18-.88A1.26,1.26,0,0,1,135.19,128.53Z"/><path class="cls-1" d="M142.68,135.93c-.25-.81-.54-1.55-.78-2.32-.4-1.2-.88-2.32-1.23-3.5-.32-1-.56-2-.79-3a2,2,0,0,1,1.06-2.22,2.23,2.23,0,0,1,2.53,0,5.32,5.32,0,0,1,1.61,2.11c.44.89.81,1.75,1.27,2.68.86-.38,1.71-.8,2.61-1.19-.08-.22-.09-.37-.15-.55-.34-.87-.72-1.74-1-2.59-.42-1.1-.79-2.21-1.16-3.32a2.37,2.37,0,0,1,.81-2.63,2.15,2.15,0,0,1,2.62.16,5.86,5.86,0,0,1,1.08,1.5c.65,1.32,4.4,10.39,5.06,12.26.39,1.15.73,2.33,1,3.52a2.26,2.26,0,0,1-1.66,2.64,2.24,2.24,0,0,1-2.72-1.33,9.18,9.18,0,0,1-.42-1.09c-.58-1.39-1.14-2.74-1.67-4.14-.1-.27-.24-.37-.55-.25-.71.37-1.5.67-2.2,1.09-.13.05-.16.36-.1.54.22,1,.56,1.85.72,2.79a2.55,2.55,0,0,1-1,2.81,2.38,2.38,0,0,1-3.15-.36,7.55,7.55,0,0,1-1-1.58c-.11-.15-.21-.27-.32-.43l-.51-1.36C142.65,136.1,142.7,136,142.68,135.93Zm3.44,3.37a2.32,2.32,0,0,0,1-.07c.15,0,.19-.17.3-.27-.12-.05-.21-.17-.32-.18a3,3,0,0,1-1.82-.71c-.31-.29-.53-.6-.84-.89a.6.6,0,0,1-.25-.11c0,.11-.08.19,0,.27s0,.13,0,.2A3.3,3.3,0,0,0,146.12,139.3ZM141.43,128a3.61,3.61,0,0,1,.51-2.5c0-.06,0-.17,0-.19s-.18-.09-.25,0a1.62,1.62,0,0,0-.51.5,1.94,1.94,0,0,0,.23,2.47C141.39,128.18,141.45,128.06,141.43,128Zm13.93,10.19a3.24,3.24,0,0,1-1.87-1.6,2.23,2.23,0,0,0-.27-.45c0-.09-.14-.1-.26-.16a.65.65,0,0,1-.11.25,3.08,3.08,0,0,0,1.77,2.39,1.08,1.08,0,0,0,1.12-.22C155.56,138.32,155.46,138.21,155.36,138.2Zm-7.22-15.95a3.06,3.06,0,0,1,.44-2.13c.07-.08,0-.26,0-.4-.13,0-.28,0-.37.09a2,2,0,0,0-.15,3A4.8,4.8,0,0,0,148.14,122.25Z"/><path class="cls-1" d="M161.45,127.79a11.24,11.24,0,0,1,.73,3.24,2.5,2.5,0,0,1-1.66,2.49,2.6,2.6,0,0,1-3-1,6,6,0,0,1-.4-.8l-1.84-4.83c-.48-1.27-.92-2.56-1.38-3.9a17.47,17.47,0,0,1-.6-2.64,2.08,2.08,0,0,1,.84-2,2,2,0,0,1,2.42,0c1.45.91,2.79,1.91,4.17,2.89.84.63,1.75,1.29,2.59,1.93,0-.06.07-.08.1-.14a1.43,1.43,0,0,1-.09-.37c-.53-1.4-1.08-2.85-1.53-4.29a11.24,11.24,0,0,1-.45-2.49,2.35,2.35,0,0,1,4.42-1.33,56.46,56.46,0,0,1,3.45,10.25,6,6,0,0,1,0,3.65,2.47,2.47,0,0,1-3.21,1.48A16.5,16.5,0,0,1,163,128.1a10,10,0,0,1-1.42-1.08,2.68,2.68,0,0,0-.45-.27s0,.06-.08.07A7.27,7.27,0,0,1,161.45,127.79Zm-3.85,2.57a.71.71,0,0,0,0,.36,5.82,5.82,0,0,0,.34.77,2.41,2.41,0,0,0,2.67,1.2,1.73,1.73,0,0,0,.3-.27c-.12,0-.21-.17-.32-.18a3,3,0,0,1-2.56-1.59c-.05-.13-.19-.23-.3-.39C157.67,130.28,157.65,130.34,157.6,130.36Zm-3-11.13a2.38,2.38,0,0,0-.12,2.6c0,.09.16.15.23.22a1.34,1.34,0,0,0,.17-.37,1.18,1.18,0,0,0-.07-.57,2.34,2.34,0,0,1,.52-2.06C155,118.88,154.82,119,154.63,119.23Zm13.75,8.94a2.76,2.76,0,0,1-2.82-.28c-.34-.23-.7-.39-1-.57-.12-.06-.25,0-.36,0s0,.24.12.31c.55.39,1.08.85,1.65,1.18a2.27,2.27,0,0,0,2.28,0c.29-.16.54-.3.37-.74C168.51,128.12,168.41,128.11,168.38,128.17Zm-4.49-14.07c-.38-.21-.81,0-1.11.52a3.38,3.38,0,0,0,.47,3.74C163.18,116.88,162.58,115.3,163.89,114.1Z"/><path class="cls-1" d="M181.48,123.74a5.57,5.57,0,0,1-1.53,4.05,4.33,4.33,0,0,1-4.46.84,6.46,6.46,0,0,1-3.77-3.44c-.7-1.44-1.33-3-1.91-4.5a14.87,14.87,0,0,1-.74-2.73,1.94,1.94,0,0,1,2-2.41,1.77,1.77,0,0,1,1.85,1.16,41.89,41.89,0,0,0,3,5.12c.24.37.6.63.88,1l.17-.07c0-.61.09-1.24.09-1.89-.05-2.24-.16-4.51-.12-6.79a11.66,11.66,0,0,1,.29-2.93,2.52,2.52,0,0,1,4.23-1.3,6,6,0,0,1,1.85,2.61c.5,1.17,1,2.34,1.44,3.52.69,1.8,1.37,3.61,1.95,5.4a3.54,3.54,0,0,1,.08,2.58,2.24,2.24,0,0,1-3.86.56,8.66,8.66,0,0,1-.83-1.39,12.22,12.22,0,0,1-.48-1.27l-.09,0C181.5,122.48,181.52,123.07,181.48,123.74Zm-11.33-7a1.93,1.93,0,0,0,.06,1.89,1.42,1.42,0,0,0,.34.22.84.84,0,0,0,.1-.39c0-.21-.1-.41-.08-.62.07-.48.18-1,.29-1.47A.55.55,0,0,0,170.15,116.69Zm8.94,10.17-.06,0-.35.14a4.11,4.11,0,0,1-2.3.17,6.73,6.73,0,0,1-2.41-1.45,2.7,2.7,0,0,0-.49-.36s-.07.07-.11.09,0,.28.13.35a14.1,14.1,0,0,0,1.49,1.4,3.31,3.31,0,0,0,3.55.35,3,3,0,0,0,.69-.56C179.17,126.93,179.15,126.89,179.09,126.86Zm-.91-13a7,7,0,0,0,.18-1,3.78,3.78,0,0,1,1.1-2.52l0,0a1.32,1.32,0,0,0,.12-.35.91.91,0,0,0-.32,0,3,3,0,0,0-.79.55,3.68,3.68,0,0,0-.8,2.67,3.85,3.85,0,0,0,.27.7A.24.24,0,0,1,178.18,113.89Zm4.43,7.56a.53.53,0,0,0-.07.33,3.94,3.94,0,0,0,1.34,2.21,1.56,1.56,0,0,0,1.39.22c.09,0,.15-.15.26-.25a1.24,1.24,0,0,0-.3-.13,4.68,4.68,0,0,1-1-.42c-.42-.45-.72-1-1.1-1.44-.12-.21-.24-.37-.36-.57Z"/><path class="cls-1" d="M188.3,99.39a2.09,2.09,0,0,1,3,1.52,2.16,2.16,0,0,1-1.73,2.32,7.48,7.48,0,0,0-1.73.61c.19.38.41.69.53,1l.57,1.49c.69,1.7,1.36,3.46,2.06,5.15s1.55,3.43,2.26,5.17c.9,2.22,1.81,4.49,2.62,6.75a5.26,5.26,0,0,1,.51,2.67,2.75,2.75,0,0,1-3.27,2.5,2.84,2.84,0,0,1-2.14-1.8c-1-2.34-1.85-4.73-2.69-7.07-.45-1.19-.9-2.37-1.31-3.57-.54-1.71-1.11-3.45-1.65-5.15-.36-1.08-.61-2.14-.93-3.22l-.55-1.85a2.48,2.48,0,0,0-.18-.49c-.57.22-1.12.38-1.66.53a2,2,0,0,1-2.35-.61,1.87,1.87,0,0,1,.74-2.7c.64-.29,1.26-.52,1.84-.85.13-.05.18-.31.15-.51-.06-.43-.27-.85-.33-1.28a1.78,1.78,0,0,1,1.39-2,1.9,1.9,0,0,1,2.11,1c.25.41.45.79.75,1.33C187,100,187.67,99.72,188.3,99.39Zm-7.48,5.71a.88.88,0,0,0,1,.16c-.5-.51-1-.94-1.45-1.41A1,1,0,0,0,180.82,105.1Zm10,19a22.18,22.18,0,0,0,1.25,2.09,2.15,2.15,0,0,0,1.8,1,1.39,1.39,0,0,0,.73-.18c.22-.08.2-.28,0-.39l-.31,0a2.12,2.12,0,0,1-1.77-.93,13,13,0,0,1-.78-1.27c-.24-.36-.45-.78-.69-1.14,0-.09-.18-.08-.28-.09a.87.87,0,0,0-.05.27,2.28,2.28,0,0,1,.17.58A0,0,0,0,1,190.81,124.11Zm-7.13-25.38a.14.14,0,0,0-.07-.17.35.35,0,0,0-.25,0,1.43,1.43,0,0,0-.19,1.88C183.35,99.86,183.54,99.29,183.68,98.73Zm5.62,3.54c-.05,0,0,.2.08.22a.35.35,0,0,0,.25,0,1.61,1.61,0,0,0,.52-2.21,1.6,1.6,0,0,0-.36-.16A2.35,2.35,0,0,1,189.3,102.27Z"/><path class="cls-1" d="M198.31,120.56a2.24,2.24,0,0,1-.45-3c.35-.54.76-1,1.1-1.58a1,1,0,0,0-.65-1.71l-1.7-.26a4.5,4.5,0,0,1-3.17-2.26,7.33,7.33,0,0,1-.37-5.85,8.09,8.09,0,0,1,2.7-4.14,2.37,2.37,0,0,1,2.54-.46,2,2,0,0,1,.86,3.19,4.72,4.72,0,0,0-.94,3.73.65.65,0,0,0,.5.66,8.45,8.45,0,0,1,3.26,1.83,6.65,6.65,0,0,1,1.56,7.14,5.34,5.34,0,0,1-1.89,2.58c-.24.15-.46.23-.71.37A2.63,2.63,0,0,1,198.31,120.56Zm-3.84-10.75a6.78,6.78,0,0,1-.17-3.36c-.85.53-.93,2.57-.33,3.9s1.82,2.27,2.67,2A6.15,6.15,0,0,1,194.47,109.81Zm3.9,8.92a2.88,2.88,0,0,0,.23.61,1.81,1.81,0,0,0,2,.71,5.81,5.81,0,0,0,.68-.46,1.94,1.94,0,0,0-.75-.12c-.7,0-1.35,0-1.77-.68,0-.09-.14-.1-.2-.13Zm-.52-14.18.18.08a1.77,1.77,0,0,0,.5-1.34.93.93,0,0,0-.4-1.06C198,103.07,198,103.8,197.85,104.55Z"/><path class="cls-2" d="M119.31,45.21a34,34,0,0,1,8.42,1.24,26.29,26.29,0,0,1,5.88,2.23,41.16,41.16,0,0,1,3.48,2.24,8.1,8.1,0,0,1,2.45,3.21c.57,1.15,1.16,2.3,1.79,3.43A11.92,11.92,0,0,1,142.66,62a24.33,24.33,0,0,1,.09,4.75,17.41,17.41,0,0,1-1.78,7,23.08,23.08,0,0,1-4.55,6.11,26,26,0,0,1-6.27,4.34,25.54,25.54,0,0,1-5.7,1.93c-3.45.78-6.91,1.52-10.42,2a29.75,29.75,0,0,1-12.48-.89,31.91,31.91,0,0,1-7-2.9,15.6,15.6,0,0,1-3.57-3,11.4,11.4,0,0,1-2.8-5.7,31.39,31.39,0,0,1-.41-10.23,17.57,17.57,0,0,1,1.12-4.57,5.84,5.84,0,0,1,1.43-2.25,7.17,7.17,0,0,0,1-1.14,28.13,28.13,0,0,1,6.14-5.84A32.25,32.25,0,0,1,104.08,48a35,35,0,0,1,6.83-1.93A45.31,45.31,0,0,1,119.31,45.21ZM119,46.48a48.1,48.1,0,0,0-7.73.67A28.13,28.13,0,0,0,103,49.86c-1.28.64-2.53,1.37-3.77,2.09a31,31,0,0,0-4.9,3.62,20.52,20.52,0,0,0-3,3.34,10.76,10.76,0,0,0-1.8,3.73,23.84,23.84,0,0,0-.59,6.3,10.48,10.48,0,0,0,.7,3.75,9.5,9.5,0,0,0,4.19,4.78,8.42,8.42,0,0,0,7,.63A29,29,0,0,0,104,76.62a4,4,0,0,1,4.55.61c.64.53,1.23,1.12,1.84,1.69A6.24,6.24,0,0,0,113,80.48a9.4,9.4,0,0,0,4.22,0,13.14,13.14,0,0,0,4.38-1.76,5.5,5.5,0,0,0,1.77-1.69,11.73,11.73,0,0,0,.82-1.47,4.61,4.61,0,0,1,4.09-2.74c1-.09,2-.1,3-.14a6.35,6.35,0,0,0,3.4-1,5,5,0,0,0,2.45-3.83c.08-.87.23-1.74.38-2.6a3.8,3.8,0,0,1,1.8-2.83A2.78,2.78,0,0,0,140.59,61a2.87,2.87,0,0,0-.14-2.35c-.51-1.07-1.06-2.11-1.62-3.15-.32-.59-.66-1.18-1-1.73A9.85,9.85,0,0,0,134.7,51a22.73,22.73,0,0,0-5.1-2.49c-1.5-.46-3-.85-4.56-1.21A33,33,0,0,0,119,46.48ZM88.79,72.75a1,1,0,0,0,0,.17c0,.31.07.62.12.93a12.52,12.52,0,0,0,3.1,6.8,15.88,15.88,0,0,0,5.41,3.76,32.75,32.75,0,0,0,6.17,2,25.08,25.08,0,0,0,6,.79,34.27,34.27,0,0,0,5.72-.61c2.79-.49,5.57-1,8.35-1.56A23.6,23.6,0,0,0,131.76,82,22.08,22.08,0,0,0,136.49,78a20.48,20.48,0,0,0,3.42-5.19,15.08,15.08,0,0,0,1.31-4.3,27.23,27.23,0,0,0,.09-6.12l-.06-.69-.08,0a2.94,2.94,0,0,1-1.46,1.43,2.36,2.36,0,0,0-1.22,1.69c-.08.33-.13.66-.18,1a14.47,14.47,0,0,1-.76,3.45,6.08,6.08,0,0,1-2.09,2.88,7.31,7.31,0,0,1-4.07,1.32c-1.24.07-2.49.16-3.73.32a2.92,2.92,0,0,0-2.23,1.35c-.36.58-.66,1.2-1,1.78a6.15,6.15,0,0,1-1.5,1.89A16,16,0,0,1,121,80a12.56,12.56,0,0,1-7,1.43,6.45,6.45,0,0,1-3.9-1.66q-.76-.7-1.5-1.44a3.58,3.58,0,0,0-4.59-.84c-.73.37-1.48.7-2.22,1a9.46,9.46,0,0,1-4.63.83,8.73,8.73,0,0,1-6.94-4.15C89.7,74.43,89.27,73.59,88.79,72.75Z"/><path class="cls-1" d="M137.56,83.36a8.79,8.79,0,0,1,.42-1.19,1.22,1.22,0,0,1,1.5-.52,1.18,1.18,0,0,1,1,1.17,2.1,2.1,0,0,1-.92,1.85,1,1,0,0,1-1.17.12,1.29,1.29,0,0,1-.77-1.14v-.27Zm1.14-.1c.08.2-.11.52.27.55s.44-.25.44-.57-.17-.57-.41-.55S138.77,83.05,138.7,83.26Z"/><path class="cls-1" d="M144.08,77.05a.86.86,0,0,1,.89-1c.32,0,.65,0,1,0,.87-.08,1.11.57,1,1.32a1.49,1.49,0,0,1-1.87,1A1.2,1.2,0,0,1,144.08,77.05Zm1-.06c-.12.47.16.61.85.43V77Z"/><path class="cls-2" d="M122.45,59.56c-.34-.07-.62-.13-.9-.17s-.63,0-.94-.1a.66.66,0,0,1-.62-.65,4.8,4.8,0,0,1,2.26.13c.56.12.59.11.87-.42a5,5,0,0,1,.53-.77.61.61,0,0,1,.66-.19,7.18,7.18,0,0,1-1.15,3,11.76,11.76,0,0,1-5.91,4.48,15.62,15.62,0,0,1-8.26.83,11.69,11.69,0,0,1-3.9-1.32A3.86,3.86,0,0,1,103,61.81a.62.62,0,0,1,0-.15.66.66,0,0,1,.67.3c.34.38.37.39.68,0a4.81,4.81,0,0,1,2-1.62,3,3,0,0,1,1-.14,24.62,24.62,0,0,0-2.72,2.39,8.3,8.3,0,0,0,3.31,1.73,14.07,14.07,0,0,0,5.25.4,15.59,15.59,0,0,0,4.92-1.31,9.27,9.27,0,0,0,3.84-2.94C122.1,60.21,122.24,59.92,122.45,59.56Z"/><path class="cls-1" d="M137.57,45.63a1.71,1.71,0,0,1-2.46-.36,1.65,1.65,0,0,1,0-2,9.81,9.81,0,0,1,1.49-1.74c.88-.89,1.82-1.77,2.8-2.58A15.89,15.89,0,0,1,142,37.32a2.08,2.08,0,0,1,2.5.87A2.25,2.25,0,0,1,144,41c-1.48,1.09-3,2.21-4.45,3.34l0-.07A22.45,22.45,0,0,1,137.57,45.63Z"/><path class="cls-1" d="M115.51,30.94a1.9,1.9,0,0,1,1.79-.74,1.8,1.8,0,0,1,1.52,1.41,16.83,16.83,0,0,1,.21,2.15,17.51,17.51,0,0,1,.14,2.6c0,.94,0,1.89.08,2.83a1.83,1.83,0,0,1-1.9,2,1.88,1.88,0,0,1-1.67-1,7.51,7.51,0,0,1-.61-2.85c-.07-1.07-.13-2.18-.16-3.25,0-.46,0-.95,0-1.4A2.93,2.93,0,0,1,115.51,30.94Z"/><path class="cls-1" d="M126.43,39a15.46,15.46,0,0,1,1.12-3.92c.49-1.26,1-2.58,1.37-3.87s2.12-2.51,3.15-2c.87.47,1.18,1.32.74,2.78-.28,1-.7,2-1.05,2.95s-.69,1.87-1,2.76a17.39,17.39,0,0,1-1,1.8,5.39,5.39,0,0,1-.84,1.09,1.35,1.35,0,0,1-1.4.36A1.79,1.79,0,0,1,126.43,39Z"/><path class="cls-2" d="M162.31,42.53a9.91,9.91,0,0,0-2.48.36,24.91,24.91,0,0,0-7,3.67,44.41,44.41,0,0,0-5.62,4.82,26.68,26.68,0,0,0-5.59,7.48,2.23,2.23,0,0,1,.33.51,19.85,19.85,0,0,1,3.89-6A34.4,34.4,0,0,1,157.81,45a11.14,11.14,0,0,1,2.89-.78c1.17-.18,1.67.45,1.21,1.53a11.86,11.86,0,0,1-1.52,2.44,33.57,33.57,0,0,1-6.29,5.91c-1.69,1.29-3.43,2.52-5.14,3.79a3.12,3.12,0,0,0-.51.62l.15.16a4.07,4.07,0,0,0,.58-.22c1.19-.73,2.37-1.48,3.56-2.2,2.21-1.32,4.25-3,6.77-3.7a16.58,16.58,0,0,1,3-.6c1-.1,1.36.55,1,1.42A12.92,12.92,0,0,1,159.4,58,42,42,0,0,1,153,61.73c-.2.11-.39.25-.59.38l.05,0c1-.29,2-.61,3.06-.86a13.47,13.47,0,0,1,4.47-.39,4.81,4.81,0,0,1,1.25.27,1.9,1.9,0,0,1,1.39,1.55,2.39,2.39,0,0,1-.9,2.34,6.14,6.14,0,0,1-3.31,1.28c-2.19.24-4.39.38-6.58.57-.5,0-1,.1-1.49.16-.16,0-.32.09-.48.13v.14c.51.19,1,.33,1.52.56a9.31,9.31,0,0,1,1.78,1c1.05.78.89,1.71-.35,2.2a7.81,7.81,0,0,1-5.16.16,9.69,9.69,0,0,1-3.73-2,1.2,1.2,0,0,1-.28-.13q-.45-.27-.87-.57l-.17,0c0,.13,0,.26,0,.39a11.22,11.22,0,0,0,6.58,3.46,4.79,4.79,0,0,0,3.86-.91,2.65,2.65,0,0,0,.67-4,23.31,23.31,0,0,0,5.85-1,7.16,7.16,0,0,0,3.6-2.23,2,2,0,0,0-.54-3.05,6.19,6.19,0,0,0-3.33-.89c-.77,0-1.55.05-2.38.08l.44-.29a18.78,18.78,0,0,0,6-5.63,7.22,7.22,0,0,0,.89-2.1c.2-.83-.23-1.32-1.08-1.46a1.85,1.85,0,0,0-.74,0c-1,.23-2,.46-2.95.77-.74.23-1.43.57-2.15.87a.83.83,0,0,1,.25-.36,33,33,0,0,0,4.67-5.8,9.74,9.74,0,0,0,1.11-2.64C163.51,43,163.08,42.51,162.31,42.53Z"/><path class="cls-2" d="M58.56,63.88a9.37,9.37,0,0,1,2.32-1,24.34,24.34,0,0,1,7.85-.39A43,43,0,0,1,76,63.82a26.61,26.61,0,0,1,8.62,3.58,2.49,2.49,0,0,0,0,.61,19.85,19.85,0,0,0-6.39-3.14,34.27,34.27,0,0,0-14.55-1.18,11.22,11.22,0,0,0-2.88.8c-1.1.44-1.21,1.24-.26,1.93a11.45,11.45,0,0,0,2.55,1.33,33.78,33.78,0,0,0,8.42,1.88c2.12.25,4.24.41,6.35.64a3.63,3.63,0,0,1,.76.27l-.05.22a4.09,4.09,0,0,1-.61.1c-1.39,0-2.79-.06-4.18-.07-2.58,0-5.17-.38-7.71.26a17.44,17.44,0,0,0-2.92,1c-.87.4-.88,1.16-.09,1.71A12.94,12.94,0,0,0,69,75.73a42,42,0,0,0,7.35-.06c.23,0,.47,0,.7,0v.06c-1,.27-2.06.51-3.07.83a13.25,13.25,0,0,0-4,1.93,6,6,0,0,0-.94.87,1.91,1.91,0,0,0-.4,2,2.4,2.4,0,0,0,2,1.56A6.24,6.24,0,0,0,74,82.4c2-.9,4-1.9,6-2.86l1.36-.62a3.76,3.76,0,0,1,.48-.13l.08.12c-.34.41-.72.81-1,1.25a9.89,9.89,0,0,0-1,1.74c-.5,1.21.11,1.93,1.42,1.72a7.86,7.86,0,0,0,4.53-2.5A9.65,9.65,0,0,0,88,77.53a2,2,0,0,0,.18-.25c.17-.31.31-.62.45-.94l.12-.13a1.83,1.83,0,0,0,.24.31,11.22,11.22,0,0,1-3.9,6.34A4.82,4.82,0,0,1,81.28,84,2.66,2.66,0,0,1,78.69,81a23.64,23.64,0,0,1-5.57,2.09A7.18,7.18,0,0,1,68.89,83a2,2,0,0,1-1.09-2.9,6.29,6.29,0,0,1,2.41-2.47c.65-.41,1.36-.74,2.09-1.14l-.52,0a18.9,18.9,0,0,1-8-1.8,7,7,0,0,1-1.83-1.36,1.12,1.12,0,0,1,.17-1.81,1.94,1.94,0,0,1,.64-.39c1-.31,1.94-.62,2.93-.85.74-.17,1.52-.23,2.28-.34a1,1,0,0,0-.39-.19,33,33,0,0,1-7-2.6A9.78,9.78,0,0,1,58.3,65.4.88.88,0,0,1,58.56,63.88Z"/></svg>